<?xml version="1.0" encoding="UTF-8"?>
<svg xmlns="http://www.w3.org/2000/svg" xmlns:xlink="http://www.w3.org/1999/xlink" width="306pt" height="229pt" viewBox="0 0 306 229" version="1.1">
<defs>
<clipPath id="clip1">
  <path d="M 53.273438 9 L 297.398438 9 L 297.398438 105 L 53.273438 105 Z M 53.273438 9 "/>
</clipPath>
<clipPath id="clip2">
  <path d="M 53.273438 102 L 297.398438 102 L 297.398438 127 L 53.273438 127 Z M 53.273438 102 "/>
</clipPath>
<clipPath id="clip3">
  <path d="M 53.273438 124 L 297.398438 124 L 297.398438 145 L 53.273438 145 Z M 53.273438 124 "/>
</clipPath>
<clipPath id="clip4">
  <path d="M 53.273438 142 L 297.398438 142 L 297.398438 159 L 53.273438 159 Z M 53.273438 142 "/>
</clipPath>
<clipPath id="clip5">
  <path d="M 53.273438 156 L 297.398438 156 L 297.398438 172 L 53.273438 172 Z M 53.273438 156 "/>
</clipPath>
<clipPath id="clip6">
  <path d="M 53.273438 169 L 265 169 L 265 182.25 L 53.273438 182.25 Z M 53.273438 169 "/>
</clipPath>
<clipPath id="clip7">
  <path d="M 262 181 L 297.398438 181 L 297.398438 182.25 L 262 182.25 Z M 262 181 "/>
</clipPath>
<clipPath id="clip8">
  <path d="M 53.273438 181 L 56 181 L 56 182.25 L 53.273438 182.25 Z M 53.273438 181 "/>
</clipPath>
</defs>
<g id="surface1">
<rect x="0" y="0" width="306" height="229" style="fill:rgb(100%,100%,100%);fill-opacity:1;stroke:none;"/>
<path style=" stroke:none;fill-rule:nonzero;fill:rgb(100%,100%,100%);fill-opacity:1;" d="M 53.273438 182.25 L 297.402344 182.25 L 297.402344 9 L 53.273438 9 Z M 53.273438 182.25 "/>
<path style="fill:none;stroke-width:0.8;stroke-linecap:butt;stroke-linejoin:round;stroke:rgb(0%,0%,0%);stroke-opacity:1;stroke-miterlimit:4;" d="M 0.000000000000014211 0 L 0.000000000000014211 3.5 " transform="matrix(1.25,0,0,1.25,110.492187,182.25)"/>
<path style=" stroke:none;fill-rule:nonzero;fill:rgb(0%,0%,0%);fill-opacity:1;" d="M 102.601562 196.0625 L 110.425781 196.0625 L 110.425781 197.097656 L 102.601562 197.097656 Z M 102.601562 196.0625 "/>
<path style=" stroke:none;fill-rule:nonzero;fill:rgb(0%,0%,0%);fill-opacity:1;" d="M 116.476562 192.460938 L 113.363281 197.324219 L 116.476562 197.324219 Z M 116.152344 191.386719 L 117.703125 191.386719 L 117.703125 197.324219 L 119.003906 197.324219 L 119.003906 198.351562 L 117.703125 198.351562 L 117.703125 200.5 L 116.476562 200.5 L 116.476562 198.351562 L 112.363281 198.351562 L 112.363281 197.160156 Z M 116.152344 191.386719 "/>
<path style="fill:none;stroke-width:0.8;stroke-linecap:butt;stroke-linejoin:round;stroke:rgb(0%,0%,0%);stroke-opacity:1;stroke-miterlimit:4;" d="M 0.000000000000028422 0 L 0.000000000000028422 3.5 " transform="matrix(1.25,0,0,1.25,186.78125,182.25)"/>
<path style=" stroke:none;fill-rule:nonzero;fill:rgb(0%,0%,0%);fill-opacity:1;" d="M 178.890625 196.0625 L 186.714844 196.0625 L 186.714844 197.097656 L 178.890625 197.097656 Z M 178.890625 196.0625 "/>
<path style=" stroke:none;fill-rule:nonzero;fill:rgb(0%,0%,0%);fill-opacity:1;" d="M 190.441406 199.460938 L 194.742188 199.460938 L 194.742188 200.5 L 188.957031 200.5 L 188.957031 199.460938 C 189.425781 198.976562 190.0625 198.328125 190.871094 197.511719 C 191.679688 196.695312 192.1875 196.167969 192.394531 195.933594 C 192.789062 195.488281 193.0625 195.113281 193.21875 194.808594 C 193.375 194.5 193.457031 194.199219 193.457031 193.902344 C 193.457031 193.417969 193.285156 193.023438 192.945312 192.71875 C 192.605469 192.410156 192.164062 192.257812 191.617188 192.257812 C 191.230469 192.257812 190.824219 192.324219 190.394531 192.460938 C 189.964844 192.59375 189.507812 192.796875 189.019531 193.070312 L 189.019531 191.824219 C 189.515625 191.625 189.976562 191.476562 190.410156 191.375 C 190.839844 191.273438 191.234375 191.222656 191.59375 191.222656 C 192.539062 191.222656 193.289062 191.457031 193.851562 191.929688 C 194.414062 192.402344 194.695312 193.03125 194.695312 193.820312 C 194.695312 194.195312 194.625 194.550781 194.484375 194.886719 C 194.34375 195.222656 194.089844 195.617188 193.71875 196.074219 C 193.617188 196.191406 193.292969 196.53125 192.746094 197.097656 C 192.203125 197.660156 191.433594 198.449219 190.441406 199.460938 Z M 190.441406 199.460938 "/>
<path style="fill:none;stroke-width:0.8;stroke-linecap:butt;stroke-linejoin:round;stroke:rgb(0%,0%,0%);stroke-opacity:1;stroke-miterlimit:4;" d="M -0.000001 0 L -0.000001 3.5 " transform="matrix(1.25,0,0,1.25,263.070314,182.25)"/>
<path style=" stroke:none;fill-rule:nonzero;fill:rgb(0%,0%,0%);fill-opacity:1;" d="M 263.066406 192.199219 C 262.433594 192.199219 261.957031 192.511719 261.636719 193.136719 C 261.316406 193.757812 261.15625 194.699219 261.15625 195.953125 C 261.15625 197.199219 261.316406 198.136719 261.636719 198.761719 C 261.957031 199.386719 262.433594 199.699219 263.066406 199.699219 C 263.707031 199.699219 264.183594 199.386719 264.503906 198.761719 C 264.824219 198.136719 264.984375 197.199219 264.984375 195.953125 C 264.984375 194.699219 264.824219 193.757812 264.503906 193.136719 C 264.183594 192.511719 263.707031 192.199219 263.066406 192.199219 Z M 263.066406 191.222656 C 264.089844 191.222656 264.871094 191.625 265.410156 192.433594 C 265.949219 193.242188 266.21875 194.414062 266.21875 195.953125 C 266.21875 197.484375 265.949219 198.65625 265.410156 199.464844 C 264.871094 200.273438 264.089844 200.675781 263.066406 200.675781 C 262.046875 200.675781 261.265625 200.273438 260.726562 199.464844 C 260.1875 198.65625 259.917969 197.484375 259.917969 195.953125 C 259.917969 194.414062 260.1875 193.242188 260.726562 192.433594 C 261.265625 191.625 262.046875 191.222656 263.066406 191.222656 Z M 263.066406 191.222656 "/>
<path style=" stroke:none;fill-rule:nonzero;fill:rgb(0%,0%,0%);fill-opacity:1;" d="M 174.523438 210.761719 L 172.050781 214.085938 L 174.648438 217.597656 L 173.324219 217.597656 L 171.335938 214.910156 L 169.347656 217.597656 L 168.019531 217.597656 L 170.675781 214.019531 L 168.246094 210.761719 L 169.570312 210.761719 L 171.382812 213.195312 L 173.195312 210.761719 Z M 174.523438 210.761719 "/>
<path style=" stroke:none;fill-rule:nonzero;fill:rgb(0%,0%,0%);fill-opacity:1;" d="M 176.609375 216.558594 L 178.625 216.558594 L 178.625 209.605469 L 176.433594 210.046875 L 176.433594 208.921875 L 178.613281 208.484375 L 179.84375 208.484375 L 179.84375 216.558594 L 181.859375 216.558594 L 181.859375 217.597656 L 176.609375 217.597656 Z M 176.609375 216.558594 "/>
<path style="fill:none;stroke-width:0.8;stroke-linecap:butt;stroke-linejoin:round;stroke:rgb(0%,0%,0%);stroke-opacity:1;stroke-miterlimit:4;" d="M -0.001562 0 L -3.501562 0 " transform="matrix(1.25,0,0,1.25,53.27539,182.25)"/>
<path style=" stroke:none;fill-rule:nonzero;fill:rgb(0%,0%,0%);fill-opacity:1;" d="M 27.421875 182.5625 L 35.246094 182.5625 L 35.246094 183.597656 L 27.421875 183.597656 Z M 27.421875 182.5625 "/>
<path style=" stroke:none;fill-rule:nonzero;fill:rgb(0%,0%,0%);fill-opacity:1;" d="M 41.644531 182.085938 C 42.234375 182.210938 42.695312 182.472656 43.023438 182.875 C 43.355469 183.273438 43.523438 183.765625 43.523438 184.351562 C 43.523438 185.25 43.214844 185.945312 42.59375 186.4375 C 41.976562 186.929688 41.097656 187.175781 39.957031 187.175781 C 39.578125 187.175781 39.183594 187.140625 38.777344 187.0625 C 38.375 186.988281 37.957031 186.875 37.523438 186.722656 L 37.523438 185.535156 C 37.867188 185.734375 38.238281 185.882812 38.644531 185.984375 C 39.054688 186.085938 39.480469 186.136719 39.921875 186.136719 C 40.695312 186.136719 41.285156 185.984375 41.6875 185.679688 C 42.09375 185.375 42.296875 184.933594 42.296875 184.351562 C 42.296875 183.8125 42.109375 183.394531 41.730469 183.089844 C 41.355469 182.789062 40.832031 182.636719 40.160156 182.636719 L 39.097656 182.636719 L 39.097656 181.621094 L 40.210938 181.621094 C 40.816406 181.621094 41.277344 181.5 41.601562 181.257812 C 41.921875 181.015625 42.082031 180.667969 42.082031 180.210938 C 42.082031 179.746094 41.917969 179.386719 41.585938 179.136719 C 41.253906 178.882812 40.78125 178.757812 40.160156 178.757812 C 39.824219 178.757812 39.460938 178.796875 39.074219 178.871094 C 38.6875 178.941406 38.261719 179.054688 37.796875 179.210938 L 37.796875 178.113281 C 38.265625 177.980469 38.707031 177.882812 39.113281 177.820312 C 39.523438 177.753906 39.910156 177.722656 40.269531 177.722656 C 41.207031 177.722656 41.945312 177.933594 42.492188 178.359375 C 43.035156 178.785156 43.308594 179.359375 43.308594 180.082031 C 43.308594 180.589844 43.164062 181.015625 42.875 181.363281 C 42.585938 181.710938 42.175781 181.949219 41.644531 182.085938 Z M 41.644531 182.085938 "/>
<path style="fill:none;stroke-width:0.8;stroke-linecap:butt;stroke-linejoin:round;stroke:rgb(0%,0%,0%);stroke-opacity:1;stroke-miterlimit:4;" d="M -0.001562 0.000962 L -3.501562 0.000962 " transform="matrix(1.25,0,0,1.25,53.27539,137.826922)"/>
<path style=" stroke:none;fill-rule:nonzero;fill:rgb(0%,0%,0%);fill-opacity:1;" d="M 27.421875 138.136719 L 35.246094 138.136719 L 35.246094 139.175781 L 27.421875 139.175781 Z M 27.421875 138.136719 "/>
<path style=" stroke:none;fill-rule:nonzero;fill:rgb(0%,0%,0%);fill-opacity:1;" d="M 38.96875 141.539062 L 43.273438 141.539062 L 43.273438 142.574219 L 37.488281 142.574219 L 37.488281 141.539062 C 37.953125 141.054688 38.59375 140.40625 39.398438 139.589844 C 40.207031 138.773438 40.714844 138.246094 40.921875 138.007812 C 41.316406 137.566406 41.59375 137.191406 41.75 136.882812 C 41.90625 136.578125 41.984375 136.273438 41.984375 135.976562 C 41.984375 135.492188 41.816406 135.097656 41.476562 134.792969 C 41.136719 134.488281 40.691406 134.335938 40.148438 134.335938 C 39.761719 134.335938 39.351562 134.402344 38.921875 134.535156 C 38.496094 134.671875 38.035156 134.875 37.546875 135.148438 L 37.546875 133.902344 C 38.042969 133.703125 38.507812 133.550781 38.9375 133.449219 C 39.371094 133.347656 39.765625 133.296875 40.125 133.296875 C 41.066406 133.296875 41.820312 133.535156 42.382812 134.007812 C 42.941406 134.480469 43.222656 135.109375 43.222656 135.898438 C 43.222656 136.273438 43.152344 136.628906 43.011719 136.964844 C 42.875 137.300781 42.617188 137.695312 42.246094 138.148438 C 42.144531 138.269531 41.820312 138.609375 41.277344 139.171875 C 40.730469 139.738281 39.964844 140.527344 38.96875 141.539062 Z M 38.96875 141.539062 "/>
<path style="fill:none;stroke-width:0.8;stroke-linecap:butt;stroke-linejoin:round;stroke:rgb(0%,0%,0%);stroke-opacity:1;stroke-miterlimit:4;" d="M -0.001562 -0.001201 L -3.501562 -0.001201 " transform="matrix(1.25,0,0,1.25,53.27539,93.403845)"/>
<path style=" stroke:none;fill-rule:nonzero;fill:rgb(0%,0%,0%);fill-opacity:1;" d="M 27.421875 93.714844 L 35.246094 93.714844 L 35.246094 94.753906 L 27.421875 94.753906 Z M 27.421875 93.714844 "/>
<path style=" stroke:none;fill-rule:nonzero;fill:rgb(0%,0%,0%);fill-opacity:1;" d="M 38.121094 97.117188 L 40.136719 97.117188 L 40.136719 90.164062 L 37.945312 90.601562 L 37.945312 89.480469 L 40.125 89.039062 L 41.355469 89.039062 L 41.355469 97.117188 L 43.371094 97.117188 L 43.371094 98.152344 L 38.121094 98.152344 Z M 38.121094 97.117188 "/>
<path style="fill:none;stroke-width:0.8;stroke-linecap:butt;stroke-linejoin:round;stroke:rgb(0%,0%,0%);stroke-opacity:1;stroke-miterlimit:4;" d="M -0.001562 -0.00024 L -3.501562 -0.00024 " transform="matrix(1.25,0,0,1.25,53.27539,48.980769)"/>
<path style=" stroke:none;fill-rule:nonzero;fill:rgb(0%,0%,0%);fill-opacity:1;" d="M 40.542969 45.429688 C 39.910156 45.429688 39.433594 45.742188 39.113281 46.367188 C 38.792969 46.988281 38.632812 47.929688 38.632812 49.183594 C 38.632812 50.429688 38.792969 51.367188 39.113281 51.992188 C 39.433594 52.617188 39.910156 52.929688 40.542969 52.929688 C 41.183594 52.929688 41.664062 52.617188 41.980469 51.992188 C 42.300781 51.367188 42.460938 50.429688 42.460938 49.183594 C 42.460938 47.929688 42.300781 46.988281 41.980469 46.367188 C 41.664062 45.742188 41.183594 45.429688 40.542969 45.429688 Z M 40.542969 44.453125 C 41.566406 44.453125 42.347656 44.855469 42.886719 45.664062 C 43.425781 46.472656 43.695312 47.644531 43.695312 49.183594 C 43.695312 50.714844 43.425781 51.886719 42.886719 52.695312 C 42.347656 53.503906 41.566406 53.90625 40.542969 53.90625 C 39.523438 53.90625 38.742188 53.503906 38.203125 52.695312 C 37.664062 51.886719 37.394531 50.714844 37.394531 49.183594 C 37.394531 47.644531 37.664062 46.472656 38.203125 45.664062 C 38.742188 44.855469 39.523438 44.453125 40.542969 44.453125 Z M 40.542969 44.453125 "/>
<path style=" stroke:none;fill-rule:nonzero;fill:rgb(0%,0%,0%);fill-opacity:1;" d="M 11.660156 96.4375 L 14.988281 98.914062 L 18.496094 96.3125 L 18.496094 97.636719 L 15.8125 99.625 L 18.496094 101.617188 L 18.496094 102.941406 L 14.921875 100.285156 L 11.660156 102.714844 L 11.660156 101.390625 L 14.097656 99.578125 L 11.660156 97.765625 Z M 11.660156 96.4375 "/>
<path style=" stroke:none;fill-rule:nonzero;fill:rgb(0%,0%,0%);fill-opacity:1;" d="M 17.460938 93.503906 L 17.460938 89.203125 L 18.496094 89.203125 L 18.496094 94.988281 L 17.460938 94.988281 C 16.976562 94.519531 16.328125 93.882812 15.511719 93.074219 C 14.695312 92.265625 14.167969 91.757812 13.929688 91.550781 C 13.488281 91.15625 13.113281 90.882812 12.804688 90.726562 C 12.5 90.566406 12.195312 90.488281 11.898438 90.488281 C 11.414062 90.488281 11.019531 90.660156 10.714844 91 C 10.410156 91.339844 10.257812 91.78125 10.257812 92.328125 C 10.257812 92.714844 10.324219 93.121094 10.457031 93.550781 C 10.59375 93.980469 10.796875 94.4375 11.070312 94.925781 L 9.824219 94.925781 C 9.625 94.429688 9.472656 93.96875 9.371094 93.535156 C 9.269531 93.105469 9.21875 92.707031 9.21875 92.351562 C 9.21875 91.40625 9.457031 90.652344 9.929688 90.09375 C 10.402344 89.53125 11.03125 89.25 11.820312 89.25 C 12.195312 89.25 12.550781 89.320312 12.886719 89.460938 C 13.222656 89.601562 13.617188 89.855469 14.070312 90.226562 C 14.191406 90.328125 14.53125 90.652344 15.09375 91.199219 C 15.660156 91.742188 16.449219 92.511719 17.460938 93.503906 Z M 17.460938 93.503906 "/>
<path style="fill:none;stroke-width:1.5;stroke-linecap:square;stroke-linejoin:round;stroke:rgb(100%,49.803922%,5.490196%);stroke-opacity:1;stroke-miterlimit:4;" d="M 57.878125 110.2625 L 70.084375 96.046875 L 78.35 87.165625 L 84.909375 80.5375 L 90.459375 75.2375 L 95.325 70.840625 L 99.6875 67.115625 L 103.653125 63.915625 L 107.30625 61.134375 L 110.690625 58.703125 L 113.85625 56.565625 L 116.828125 54.68125 L 119.63125 53.009375 L 122.284375 51.528125 L 124.80625 50.209375 L 127.20625 49.0375 L 129.5 47.99375 L 131.69375 47.059375 L 133.79375 46.228125 L 135.8125 45.484375 L 137.75 44.821875 " transform="matrix(1.25,0,0,1.25,0,0.000000000000014211)"/>
<path style="fill-rule:nonzero;fill:rgb(100%,49.803922%,5.490196%);fill-opacity:1;stroke-width:1;stroke-linecap:butt;stroke-linejoin:round;stroke:rgb(100%,49.803922%,5.490196%);stroke-opacity:1;stroke-miterlimit:4;" d="M 0.000000000000014211 3.000962 C 0.796875 3.000962 1.559375 2.685337 2.121875 2.122837 C 2.684375 1.557212 3 0.794712 3 0.000962 C 3 -0.795913 2.684375 -1.558413 2.121875 -2.120913 C 1.559375 -2.683413 0.796875 -2.999038 0.000000000000014211 -2.999038 C -0.796875 -2.999038 -1.559375 -2.683413 -2.121875 -2.120913 C -2.684375 -1.558413 -3 -0.795913 -3 0.000962 C -3 0.794712 -2.684375 1.557212 -2.121875 2.122837 C -1.559375 2.685337 -0.796875 3.000962 0.000000000000014211 3.000962 Z M 0.000000000000014211 3.000962 " transform="matrix(1.25,0,0,1.25,72.347656,137.826922)"/>
<path style="fill-rule:nonzero;fill:rgb(100%,49.803922%,5.490196%);fill-opacity:1;stroke-width:1;stroke-linecap:butt;stroke-linejoin:round;stroke:rgb(100%,49.803922%,5.490196%);stroke-opacity:1;stroke-miterlimit:4;" d="M 0.000006 3.000721 C 0.796881 3.000721 1.559381 2.685096 2.121881 2.122596 C 2.684381 1.560096 3.000006 0.794471 3.000006 0.000721 C 3.000006 -0.796154 2.684381 -1.558654 2.121881 -2.121154 C 1.559381 -2.683654 0.796881 -2.999279 0.000006 -2.999279 C -0.796869 -2.999279 -1.559369 -2.683654 -2.121869 -2.121154 C -2.684369 -1.558654 -2.999994 -0.796154 -2.999994 0.000721 C -2.999994 0.794471 -2.684369 1.560096 -2.121869 2.122596 C -1.559369 2.685096 -0.796869 3.000721 0.000006 3.000721 Z M 0.000006 3.000721 " transform="matrix(1.25,0,0,1.25,87.605461,120.057692)"/>
<path style="fill-rule:nonzero;fill:rgb(100%,49.803922%,5.490196%);fill-opacity:1;stroke-width:1;stroke-linecap:butt;stroke-linejoin:round;stroke:rgb(100%,49.803922%,5.490196%);stroke-opacity:1;stroke-miterlimit:4;" d="M 0.001312 2.999752 C 0.795062 2.999752 1.557562 2.684127 2.120062 2.121627 C 2.682562 1.559127 3.001312 0.796627 3.001312 -0.000248 C 3.001312 -0.797123 2.682562 -1.559623 2.120062 -2.122123 C 1.557562 -2.684623 0.795062 -3.000248 0.001312 -3.000248 C -0.795563 -3.000248 -1.558063 -2.684623 -2.120563 -2.122123 C -2.683063 -1.559623 -2.998688 -0.797123 -2.998688 -0.000248 C -2.998688 0.796627 -2.683063 1.559127 -2.120563 2.121627 C -1.558063 2.684127 -0.795563 2.999752 0.001312 2.999752 Z M 0.001312 2.999752 " transform="matrix(1.25,0,0,1.25,97.93586,108.957341)"/>
<path style="fill-rule:nonzero;fill:rgb(100%,49.803922%,5.490196%);fill-opacity:1;stroke-width:1;stroke-linecap:butt;stroke-linejoin:round;stroke:rgb(100%,49.803922%,5.490196%);stroke-opacity:1;stroke-miterlimit:4;" d="M 0.00136 3.000448 C 0.79511 3.000448 1.55761 2.684823 2.12011 2.122323 C 2.68261 1.559823 3.00136 0.794198 3.00136 0.000448 C 3.00136 -0.796427 2.68261 -1.558927 2.12011 -2.121427 C 1.55761 -2.683927 0.79511 -2.999552 0.00136 -2.999552 C -0.795515 -2.999552 -1.558015 -2.683927 -2.120515 -2.121427 C -2.683015 -1.558927 -2.99864 -0.796427 -2.99864 0.000448 C -2.99864 0.794198 -2.683015 1.559823 -2.120515 2.122323 C -1.558015 2.684823 -0.795515 3.000448 0.00136 3.000448 Z M 0.00136 3.000448 " transform="matrix(1.25,0,0,1.25,106.135019,100.671315)"/>
<path style="fill-rule:nonzero;fill:rgb(100%,49.803922%,5.490196%);fill-opacity:1;stroke-width:1;stroke-linecap:butt;stroke-linejoin:round;stroke:rgb(100%,49.803922%,5.490196%);stroke-opacity:1;stroke-miterlimit:4;" d="M -0.000236 3.001393 C 0.796639 3.001393 1.559139 2.682643 2.121639 2.120143 C 2.684139 1.557643 2.999764 0.795143 2.999764 0.001393 C 2.999764 -0.795482 2.684139 -1.557982 2.121639 -2.120482 C 1.559139 -2.682982 0.796639 -2.998607 -0.000236 -2.998607 C -0.797111 -2.998607 -1.559611 -2.682982 -2.122111 -2.120482 C -2.684611 -1.557982 -3.000236 -0.795482 -3.000236 0.001393 C -3.000236 0.795143 -2.684611 1.557643 -2.122111 2.120143 C -1.559611 2.682643 -0.797111 3.001393 -0.000236 3.001393 Z M -0.000236 3.001393 " transform="matrix(1.25,0,0,1.25,113.074514,94.045134)"/>
<path style="fill-rule:nonzero;fill:rgb(100%,49.803922%,5.490196%);fill-opacity:1;stroke-width:1;stroke-linecap:butt;stroke-linejoin:round;stroke:rgb(100%,49.803922%,5.490196%);stroke-opacity:1;stroke-miterlimit:4;" d="M -0.000825 2.999516 C 0.79605 2.999516 1.55855 2.683891 2.12105 2.121391 C 2.68355 1.558891 2.999175 0.796391 2.999175 -0.000484 C 2.999175 -0.794234 2.68355 -1.559859 2.12105 -2.122359 C 1.55855 -2.684859 0.79605 -3.000484 -0.000825 -3.000484 C -0.794575 -3.000484 -1.5602 -2.684859 -2.1227 -2.122359 C -2.6852 -1.559859 -3.000825 -0.794234 -3.000825 -0.000484 C -3.000825 0.796391 -2.6852 1.558891 -2.1227 2.121391 C -1.5602 2.683891 -0.794575 2.999516 -0.000825 2.999516 Z M -0.000825 2.999516 " transform="matrix(1.25,0,0,1.25,119.157281,88.551386)"/>
<path style="fill-rule:nonzero;fill:rgb(100%,49.803922%,5.490196%);fill-opacity:1;stroke-width:1;stroke-linecap:butt;stroke-linejoin:round;stroke:rgb(100%,49.803922%,5.490196%);stroke-opacity:1;stroke-miterlimit:4;" d="M 0.000915 2.998917 C 0.794665 2.998917 1.56029 2.683292 2.12279 2.120792 C 2.68529 1.558292 3.000915 0.795792 3.000915 -0.001083 C 3.000915 -0.794833 2.68529 -1.557333 2.12279 -2.119833 C 1.56029 -2.685458 0.794665 -3.001083 0.000915 -3.001083 C -0.79596 -3.001083 -1.55846 -2.685458 -2.12096 -2.119833 C -2.68346 -1.557333 -2.999085 -0.794833 -2.999085 -0.001083 C -2.999085 0.795792 -2.68346 1.558292 -2.12096 2.120792 C -1.55846 2.683292 -0.79596 2.998917 0.000915 2.998917 Z M 0.000915 2.998917 " transform="matrix(1.25,0,0,1.25,124.608231,83.895885)"/>
<path style="fill-rule:nonzero;fill:rgb(100%,49.803922%,5.490196%);fill-opacity:1;stroke-width:1;stroke-linecap:butt;stroke-linejoin:round;stroke:rgb(100%,49.803922%,5.490196%);stroke-opacity:1;stroke-miterlimit:4;" d="M -0.001202 3.0007 C 0.795673 3.0007 1.558173 2.685075 2.120673 2.122575 C 2.683173 1.560075 2.998798 0.79445 2.998798 0.0007 C 2.998798 -0.796175 2.683173 -1.558675 2.120673 -2.121175 C 1.558173 -2.683675 0.795673 -2.9993 -0.001202 -2.9993 C -0.794952 -2.9993 -1.557452 -2.683675 -2.119952 -2.121175 C -2.682452 -1.558675 -3.001202 -0.796175 -3.001202 0.0007 C -3.001202 0.79445 -2.682452 1.560075 -2.119952 2.122575 C -1.557452 2.685075 -0.794952 3.0007 -0.001202 3.0007 Z M -0.001202 3.0007 " transform="matrix(1.25,0,0,1.25,129.567909,79.893656)"/>
<path style="fill-rule:nonzero;fill:rgb(100%,49.803922%,5.490196%);fill-opacity:1;stroke-width:1;stroke-linecap:butt;stroke-linejoin:round;stroke:rgb(100%,49.803922%,5.490196%);stroke-opacity:1;stroke-miterlimit:4;" d="M 0.001398 2.999484 C 0.795148 2.999484 1.557648 2.683859 2.120148 2.121359 C 2.682648 1.558859 3.001398 0.796359 3.001398 -0.000516 C 3.001398 -0.794266 2.682648 -1.559891 2.120148 -2.122391 C 1.557648 -2.684891 0.795148 -3.000516 0.001398 -3.000516 C -0.795477 -3.000516 -1.557977 -2.684891 -2.120477 -2.122391 C -2.682977 -1.559891 -2.998602 -0.794266 -2.998602 -0.000516 C -2.998602 0.796359 -2.682977 1.558859 -2.120477 2.121359 C -1.557977 2.683859 -0.795477 2.999484 0.001398 2.999484 Z M 0.001398 2.999484 " transform="matrix(1.25,0,0,1.25,134.131065,76.418614)"/>
<path style="fill-rule:nonzero;fill:rgb(100%,49.803922%,5.490196%);fill-opacity:1;stroke-width:1;stroke-linecap:butt;stroke-linejoin:round;stroke:rgb(100%,49.803922%,5.490196%);stroke-opacity:1;stroke-miterlimit:4;" d="M -0.001501 2.999399 C 0.795374 2.999399 1.557874 2.683774 2.120374 2.121274 C 2.682874 1.558774 2.998499 0.796274 2.998499 -0.000601 C 2.998499 -0.794351 2.682874 -1.559976 2.120374 -2.122476 C 1.557874 -2.684976 0.795374 -3.000601 -0.001501 -3.000601 C -0.795251 -3.000601 -1.557751 -2.684976 -2.120251 -2.122476 C -2.682751 -1.559976 -3.001501 -0.794351 -3.001501 -0.000601 C -3.001501 0.796274 -2.682751 1.558774 -2.120251 2.121274 C -1.557751 2.683774 -0.795251 2.999399 -0.001501 2.999399 Z M -0.001501 2.999399 " transform="matrix(1.25,0,0,1.25,138.365157,73.379658)"/>
<path style="fill-rule:nonzero;fill:rgb(100%,49.803922%,5.490196%);fill-opacity:1;stroke-width:1;stroke-linecap:butt;stroke-linejoin:round;stroke:rgb(100%,49.803922%,5.490196%);stroke-opacity:1;stroke-miterlimit:4;" d="M 0.000059 2.999218 C 0.796934 2.999218 1.559434 2.683593 2.121934 2.121093 C 2.684434 1.558593 3.000059 0.796093 3.000059 -0.000782 C 3.000059 -0.794532 2.684434 -1.560157 2.121934 -2.122657 C 1.559434 -2.685157 0.796934 -3.000782 0.000059 -3.000782 C -0.796816 -3.000782 -1.559316 -2.685157 -2.121816 -2.122657 C -2.684316 -1.560157 -2.999941 -0.794532 -2.999941 -0.000782 C -2.999941 0.796093 -2.684316 1.558593 -2.121816 2.121093 C -1.559316 2.683593 -0.796816 2.999218 0.000059 2.999218 Z M 0.000059 2.999218 " transform="matrix(1.25,0,0,1.25,142.320239,70.708009)"/>
<path style="fill-rule:nonzero;fill:rgb(100%,49.803922%,5.490196%);fill-opacity:1;stroke-width:1;stroke-linecap:butt;stroke-linejoin:round;stroke:rgb(100%,49.803922%,5.490196%);stroke-opacity:1;stroke-miterlimit:4;" d="M 0.000391 3.001294 C 0.794141 3.001294 1.559766 2.682544 2.122266 2.120044 C 2.684766 1.557544 3.000391 0.795044 3.000391 0.001294 C 3.000391 -0.795581 2.684766 -1.558081 2.122266 -2.120581 C 1.559766 -2.683081 0.794141 -2.998706 0.000391 -2.998706 C -0.796484 -2.998706 -1.558984 -2.683081 -2.121484 -2.120581 C -2.683984 -1.558081 -2.999609 -0.795581 -2.999609 0.001294 C -2.999609 0.795044 -2.683984 1.557544 -2.121484 2.120044 C -1.558984 2.682544 -0.796484 3.001294 0.000391 3.001294 Z M 0.000391 3.001294 " transform="matrix(1.25,0,0,1.25,146.034667,68.349945)"/>
<path style="fill-rule:nonzero;fill:rgb(100%,49.803922%,5.490196%);fill-opacity:1;stroke-width:1;stroke-linecap:butt;stroke-linejoin:round;stroke:rgb(100%,49.803922%,5.490196%);stroke-opacity:1;stroke-miterlimit:4;" d="M 0.000358 2.999488 C 0.794108 2.999488 1.559733 2.683863 2.122233 2.121363 C 2.684733 1.558863 3.000358 0.796363 3.000358 -0.000512 C 3.000358 -0.794262 2.684733 -1.559887 2.122233 -2.122387 C 1.559733 -2.684887 0.794108 -3.000512 0.000358 -3.000512 C -0.796517 -3.000512 -1.559017 -2.684887 -2.121517 -2.122387 C -2.684017 -1.559887 -2.999642 -0.794262 -2.999642 -0.000512 C -2.999642 0.796363 -2.684017 1.558863 -2.121517 2.121363 C -1.559017 2.683863 -0.796517 2.999488 0.000358 2.999488 Z M 0.000358 2.999488 " transform="matrix(1.25,0,0,1.25,149.538615,66.262359)"/>
<path style="fill-rule:nonzero;fill:rgb(100%,49.803922%,5.490196%);fill-opacity:1;stroke-width:1;stroke-linecap:butt;stroke-linejoin:round;stroke:rgb(100%,49.803922%,5.490196%);stroke-opacity:1;stroke-miterlimit:4;" d="M -0.000688 3.000189 C 0.796187 3.000189 1.558687 2.684564 2.121187 2.122064 C 2.683687 1.559564 2.999312 0.797064 2.999312 0.000189 C 2.999312 -0.796686 2.683687 -1.559186 2.121187 -2.121686 C 1.558687 -2.684186 0.796187 -2.999811 -0.000688 -2.999811 C -0.794438 -2.999811 -1.560063 -2.684186 -2.122563 -2.121686 C -2.685063 -1.559186 -3.000688 -0.796686 -3.000688 0.000189 C -3.000688 0.797064 -2.685063 1.559564 -2.122563 2.122064 C -1.560063 2.684564 -0.794438 3.000189 -0.000688 3.000189 Z M -0.000688 3.000189 " transform="matrix(1.25,0,0,1.25,152.856329,64.40992)"/>
<path style="fill-rule:nonzero;fill:rgb(100%,49.803922%,5.490196%);fill-opacity:1;stroke-width:1;stroke-linecap:butt;stroke-linejoin:round;stroke:rgb(100%,49.803922%,5.490196%);stroke-opacity:1;stroke-miterlimit:4;" d="M 0.000134 2.998844 C 0.797009 2.998844 1.559509 2.683219 2.122009 2.120719 C 2.684509 1.558219 3.000134 0.795719 3.000134 -0.001156 C 3.000134 -0.794906 2.684509 -1.557406 2.122009 -2.119906 C 1.559509 -2.682406 0.797009 -3.001156 0.000134 -3.001156 C -0.796741 -3.001156 -1.559241 -2.682406 -2.121741 -2.119906 C -2.684241 -1.557406 -2.999866 -0.794906 -2.999866 -0.001156 C -2.999866 0.795719 -2.684241 1.558219 -2.121741 2.120719 C -1.559241 2.683219 -0.796741 2.998844 0.000134 2.998844 Z M 0.000134 2.998844 " transform="matrix(1.25,0,0,1.25,156.007645,62.763164)"/>
<path style="fill-rule:nonzero;fill:rgb(100%,49.803922%,5.490196%);fill-opacity:1;stroke-width:1;stroke-linecap:butt;stroke-linejoin:round;stroke:rgb(100%,49.803922%,5.490196%);stroke-opacity:1;stroke-miterlimit:4;" d="M -0.000985 2.999755 C 0.79589 2.999755 1.55839 2.68413 2.12089 2.12163 C 2.68339 1.55913 2.999015 0.79663 2.999015 -0.000245 C 2.999015 -0.79712 2.68339 -1.55962 2.12089 -2.12212 C 1.55839 -2.68462 0.79589 -3.000245 -0.000985 -3.000245 C -0.794735 -3.000245 -1.557235 -2.68462 -2.12286 -2.12212 C -2.68536 -1.55962 -3.000985 -0.79712 -3.000985 -0.000245 C -3.000985 0.79663 -2.68536 1.55913 -2.12286 2.12163 C -1.557235 2.68413 -0.794735 2.999755 -0.000985 2.999755 Z M -0.000985 2.999755 " transform="matrix(1.25,0,0,1.25,159.009044,61.297181)"/>
<path style="fill-rule:nonzero;fill:rgb(100%,49.803922%,5.490196%);fill-opacity:1;stroke-width:1;stroke-linecap:butt;stroke-linejoin:round;stroke:rgb(100%,49.803922%,5.490196%);stroke-opacity:1;stroke-miterlimit:4;" d="M 0.000481 3.001209 C 0.794231 3.001209 1.559856 2.682459 2.122356 2.119959 C 2.684856 1.557459 3.000481 0.794959 3.000481 0.001209 C 3.000481 -0.795666 2.684856 -1.558166 2.122356 -2.120666 C 1.559856 -2.683166 0.794231 -2.998791 0.000481 -2.998791 C -0.796394 -2.998791 -1.558894 -2.683166 -2.121394 -2.120666 C -2.683894 -1.558166 -2.999519 -0.795666 -2.999519 0.001209 C -2.999519 0.794959 -2.683894 1.557459 -2.121394 2.119959 C -1.558894 2.682459 -0.796394 3.001209 0.000481 3.001209 Z M 0.000481 3.001209 " transform="matrix(1.25,0,0,1.25,161.874399,59.990676)"/>
<path style="fill-rule:nonzero;fill:rgb(100%,49.803922%,5.490196%);fill-opacity:1;stroke-width:1;stroke-linecap:butt;stroke-linejoin:round;stroke:rgb(100%,49.803922%,5.490196%);stroke-opacity:1;stroke-miterlimit:4;" d="M 0.001335 2.999153 C 0.795085 2.999153 1.557585 2.683528 2.120085 2.121028 C 2.682585 1.558528 3.001335 0.796028 3.001335 -0.000847 C 3.001335 -0.794597 2.682585 -1.560222 2.120085 -2.122722 C 1.557585 -2.685222 0.795085 -3.000847 0.001335 -3.000847 C -0.79554 -3.000847 -1.55804 -2.685222 -2.12054 -2.122722 C -2.68304 -1.560222 -2.998665 -0.794597 -2.998665 -0.000847 C -2.998665 0.796028 -2.68304 1.558528 -2.12054 2.121028 C -1.55804 2.683528 -0.79554 2.999153 0.001335 2.999153 Z M 0.001335 2.999153 " transform="matrix(1.25,0,0,1.25,164.615519,58.825278)"/>
<path style="fill-rule:nonzero;fill:rgb(100%,49.803922%,5.490196%);fill-opacity:1;stroke-width:1;stroke-linecap:butt;stroke-linejoin:round;stroke:rgb(100%,49.803922%,5.490196%);stroke-opacity:1;stroke-miterlimit:4;" d="M -0.0003 3.000107 C 0.796575 3.000107 1.559075 2.684482 2.121575 2.121982 C 2.684075 1.559482 2.9997 0.796982 2.9997 0.000107 C 2.9997 -0.796768 2.684075 -1.559268 2.121575 -2.121768 C 1.559075 -2.684268 0.796575 -2.999893 -0.0003 -2.999893 C -0.79405 -2.999893 -1.559675 -2.684268 -2.122175 -2.121768 C -2.684675 -1.559268 -3.0003 -0.796768 -3.0003 0.000107 C -3.0003 0.796982 -2.684675 1.559482 -2.122175 2.121982 C -1.559675 2.684482 -0.79405 3.000107 -0.0003 3.000107 Z M -0.0003 3.000107 " transform="matrix(1.25,0,0,1.25,167.242562,57.785023)"/>
<path style="fill-rule:nonzero;fill:rgb(100%,49.803922%,5.490196%);fill-opacity:1;stroke-width:1;stroke-linecap:butt;stroke-linejoin:round;stroke:rgb(100%,49.803922%,5.490196%);stroke-opacity:1;stroke-miterlimit:4;" d="M 0.001024 2.999605 C 0.794774 2.999605 1.557274 2.68398 2.119774 2.12148 C 2.685399 1.55898 3.001024 0.79648 3.001024 -0.000395 C 3.001024 -0.794145 2.685399 -1.55977 2.119774 -2.12227 C 1.557274 -2.68477 0.794774 -3.000395 0.001024 -3.000395 C -0.795851 -3.000395 -1.558351 -2.68477 -2.120851 -2.12227 C -2.683351 -1.55977 -2.998976 -0.794145 -2.998976 -0.000395 C -2.998976 0.79648 -2.683351 1.55898 -2.120851 2.12148 C -1.558351 2.68398 -0.795851 2.999605 0.001024 2.999605 Z M 0.001024 2.999605 " transform="matrix(1.25,0,0,1.25,169.764345,56.855963)"/>
<path style="fill-rule:nonzero;fill:rgb(100%,49.803922%,5.490196%);fill-opacity:1;stroke-width:1;stroke-linecap:butt;stroke-linejoin:round;stroke:rgb(100%,49.803922%,5.490196%);stroke-opacity:1;stroke-miterlimit:4;" d="M -0.000858 3.001196 C 0.796017 3.001196 1.558517 2.682446 2.121017 2.119946 C 2.683517 1.557446 2.999142 0.794946 2.999142 0.001196 C 2.999142 -0.795679 2.683517 -1.558179 2.121017 -2.120679 C 1.558517 -2.683179 0.796017 -2.998804 -0.000858 -2.998804 C -0.794608 -2.998804 -1.560233 -2.683179 -2.122733 -2.120679 C -2.685233 -1.558179 -3.000858 -0.795679 -3.000858 0.001196 C -3.000858 0.794946 -2.685233 1.557446 -2.122733 2.119946 C -1.560233 2.682446 -0.794608 3.001196 -0.000858 3.001196 Z M -0.000858 3.001196 " transform="matrix(1.25,0,0,1.25,172.188572,56.025849)"/>
<g clip-path="url(#clip1)" clip-rule="nonzero">
<path style="fill:none;stroke-width:1.5;stroke-linecap:butt;stroke-linejoin:round;stroke:rgb(12.156863%,46.666667%,70.588235%);stroke-opacity:1;stroke-miterlimit:4;" d="M 97.1 7.2 L 94.496875 7.86875 L 91.44375 8.675 L 88.39375 9.5 L 85.34375 10.346875 L 83.909375 10.753125 L 82.290625 11.275 L 79.240625 12.28125 L 76.1875 13.3125 L 73.30625 14.30625 L 73.1375 14.375 L 70.084375 15.61875 L 67.034375 16.890625 L 64.753125 17.8625 L 63.98125 18.25 L 60.928125 19.815625 L 57.878125 21.415625 L 54.828125 23.409375 L 52.4875 24.96875 L 51.775 25.578125 L 48.721875 28.24375 L 48.409375 28.521875 L 45.671875 31.934375 L 45.559375 32.078125 L 43.88125 35.63125 L 43.31875 39.184375 L 43.88125 42.7375 L 45.559375 46.29375 L 45.671875 46.434375 L 48.409375 49.846875 L 48.721875 50.125 L 51.775 52.790625 L 52.4875 53.4 L 54.828125 54.959375 L 57.878125 56.953125 L 60.928125 58.553125 L 63.98125 60.11875 L 64.753125 60.50625 L 67.034375 61.478125 L 70.084375 62.75 L 73.1375 63.99375 L 73.30625 64.0625 L 76.1875 65.05625 L 79.240625 66.0875 L 82.290625 67.09375 L 83.909375 67.615625 L 85.34375 68.021875 L 88.39375 68.86875 L 91.44375 69.696875 L 94.496875 70.5 L 97.1 71.16875 L 97.546875 71.271875 L 100.6 71.95625 L 103.653125 72.61875 L 106.703125 73.265625 L 109.753125 73.890625 L 112.80625 74.5 L 113.96875 74.721875 L 115.859375 75.053125 L 118.909375 75.56875 L 121.9625 76.06875 L 125.0125 76.55 L 128.065625 77.015625 L 131.115625 77.465625 L 134.16875 77.896875 L 136.96875 78.278125 L 137.21875 78.309375 L 140.271875 78.671875 L 143.321875 79.01875 L 146.375 79.35 L 149.425 79.66875 L 152.478125 79.96875 L 155.528125 80.25625 L 158.58125 80.525 L 161.63125 80.78125 L 164.684375 81.01875 L 167.734375 81.24375 L 170.7875 81.453125 L 173.8375 81.646875 L 176.8875 81.821875 L 177.034375 81.83125 L 179.940625 81.971875 L 182.99375 82.109375 L 186.04375 82.228125 L 189.096875 82.334375 L 192.146875 82.428125 L 195.2 82.50625 L 198.25 82.56875 L 201.303125 82.61875 L 204.353125 82.65625 L 207.40625 82.678125 L 210.45625 82.684375 L 213.509375 82.678125 L 216.559375 82.65625 L 219.6125 82.61875 L 222.6625 82.56875 L 225.715625 82.50625 L 228.765625 82.428125 L 231.81875 82.334375 L 234.86875 82.228125 L 237.921875 82.109375 " transform="matrix(1.25,0,0,1.25,0,0.000000000000014211)"/>
</g>
<g clip-path="url(#clip2)" clip-rule="nonzero">
<path style="fill:none;stroke-width:1.5;stroke-linecap:butt;stroke-linejoin:round;stroke:rgb(12.156863%,46.666667%,70.588235%);stroke-opacity:1;stroke-miterlimit:4;" d="M 42.61875 82.50625 L 45.671875 83.28125 L 48.721875 84.040625 L 51.775 84.7875 L 54.2625 85.384375 L 54.828125 85.509375 L 57.878125 86.175 L 60.928125 86.825 L 63.98125 87.465625 L 67.034375 88.090625 L 70.084375 88.7 L 71.290625 88.9375 L 73.1375 89.275 L 76.1875 89.821875 L 79.240625 90.353125 L 82.290625 90.875 L 85.34375 91.384375 L 88.39375 91.878125 L 91.44375 92.3625 L 92.278125 92.49375 L 94.496875 92.8125 L 97.546875 93.24375 L 100.6 93.6625 L 103.653125 94.06875 L 106.703125 94.465625 L 109.753125 94.846875 L 112.80625 95.221875 L 115.859375 95.58125 L 118.909375 95.93125 L 119.94375 96.046875 L 121.9625 96.25625 L 125.0125 96.5625 L 128.065625 96.859375 L 131.115625 97.14375 L 134.16875 97.41875 L 137.21875 97.684375 L 140.271875 97.9375 L 143.321875 98.178125 L 146.375 98.409375 L 149.425 98.63125 L 152.478125 98.840625 L 155.528125 99.040625 L 158.58125 99.228125 L 161.63125 99.40625 L 164.684375 99.571875 L 165.209375 99.6 L 167.734375 99.721875 L 170.7875 99.859375 L 173.8375 99.984375 L 176.8875 100.103125 L 179.940625 100.209375 L 182.99375 100.30625 L 186.04375 100.390625 L 189.096875 100.46875 L 192.146875 100.534375 L 195.2 100.590625 L 198.25 100.634375 L 201.303125 100.671875 L 204.353125 100.696875 L 207.40625 100.7125 L 210.45625 100.715625 L 213.509375 100.7125 L 216.559375 100.696875 L 219.6125 100.671875 L 222.6625 100.634375 L 225.715625 100.590625 L 228.765625 100.534375 L 231.81875 100.46875 L 234.86875 100.390625 L 237.921875 100.30625 " transform="matrix(1.25,0,0,1.25,0,0.000000000000014211)"/>
</g>
<g clip-path="url(#clip3)" clip-rule="nonzero">
<path style="fill:none;stroke-width:1.5;stroke-linecap:butt;stroke-linejoin:round;stroke:rgb(12.156863%,46.666667%,70.588235%);stroke-opacity:1;stroke-miterlimit:4;" d="M 42.61875 100.590625 L 45.671875 101.14375 L 48.721875 101.6875 L 51.775 102.21875 L 54.828125 102.74375 L 57.275 103.153125 L 57.878125 103.25 L 60.928125 103.725 L 63.98125 104.190625 L 67.034375 104.646875 L 70.084375 105.09375 L 73.1375 105.53125 L 76.1875 105.959375 L 79.240625 106.375 L 81.715625 106.70625 L 82.290625 106.78125 L 85.34375 107.159375 L 88.39375 107.528125 L 91.44375 107.8875 L 94.496875 108.2375 L 97.546875 108.58125 L 100.6 108.9125 L 103.653125 109.2375 L 106.703125 109.55 L 109.753125 109.85625 L 112.80625 110.153125 L 113.96875 110.2625 L 115.859375 110.43125 L 118.909375 110.69375 L 121.9625 110.95 L 125.0125 111.196875 L 128.065625 111.4375 L 131.115625 111.665625 L 134.16875 111.8875 L 137.21875 112.1 L 140.271875 112.303125 L 143.321875 112.496875 L 146.375 112.684375 L 149.425 112.8625 L 152.478125 113.03125 L 155.528125 113.190625 L 158.58125 113.34375 L 161.63125 113.4875 L 164.684375 113.621875 L 167.734375 113.746875 L 169.54375 113.815625 L 170.7875 113.859375 L 173.8375 113.965625 L 176.8875 114.059375 L 179.940625 114.146875 L 182.99375 114.225 L 186.04375 114.29375 L 189.096875 114.35625 L 192.146875 114.409375 L 195.2 114.45625 L 198.25 114.49375 L 201.303125 114.521875 L 204.353125 114.54375 L 207.40625 114.55625 L 210.45625 114.559375 L 213.509375 114.55625 L 216.559375 114.54375 L 219.6125 114.521875 L 222.6625 114.49375 L 225.715625 114.45625 L 228.765625 114.409375 L 231.81875 114.35625 L 234.86875 114.29375 L 237.921875 114.225 " transform="matrix(1.25,0,0,1.25,0,0.000000000000014211)"/>
</g>
<g clip-path="url(#clip4)" clip-rule="nonzero">
<path style="fill:none;stroke-width:1.5;stroke-linecap:butt;stroke-linejoin:round;stroke:rgb(12.156863%,46.666667%,70.588235%);stroke-opacity:1;stroke-miterlimit:4;" d="M 42.61875 114.45625 L 45.671875 114.90625 L 48.721875 115.35 L 51.775 115.78125 L 54.828125 116.209375 L 57.878125 116.625 L 60.928125 117.034375 L 63.478125 117.36875 L 63.98125 117.43125 L 67.034375 117.80625 L 70.084375 118.175 L 73.1375 118.534375 L 76.1875 118.884375 L 79.240625 119.228125 L 82.290625 119.565625 L 85.34375 119.89375 L 88.39375 120.2125 L 91.44375 120.525 L 94.496875 120.828125 L 95.471875 120.921875 L 97.546875 121.115625 L 100.6 121.390625 L 103.653125 121.659375 L 106.703125 121.921875 L 109.753125 122.175 L 112.80625 122.41875 L 115.859375 122.659375 L 118.909375 122.8875 L 121.9625 123.1125 L 125.0125 123.328125 L 128.065625 123.534375 L 131.115625 123.734375 L 134.16875 123.928125 L 137.21875 124.1125 L 140.271875 124.290625 L 143.321875 124.4625 L 143.60625 124.478125 L 146.375 124.61875 L 149.425 124.765625 L 152.478125 124.909375 L 155.528125 125.04375 L 158.58125 125.16875 L 161.63125 125.290625 L 164.684375 125.403125 L 167.734375 125.50625 L 170.7875 125.60625 L 173.8375 125.696875 L 176.8875 125.778125 L 179.940625 125.85625 L 182.99375 125.925 L 186.04375 125.984375 L 189.096875 126.040625 L 192.146875 126.0875 L 195.2 126.128125 L 198.25 126.159375 L 201.303125 126.184375 L 204.353125 126.203125 L 207.40625 126.2125 L 210.45625 126.21875 L 213.509375 126.2125 L 216.559375 126.203125 L 219.6125 126.184375 L 222.6625 126.159375 L 225.715625 126.128125 L 228.765625 126.0875 L 231.81875 126.040625 L 234.86875 125.984375 L 237.921875 125.925 " transform="matrix(1.25,0,0,1.25,0,0.000000000000014211)"/>
</g>
<g clip-path="url(#clip5)" clip-rule="nonzero">
<path style="fill:none;stroke-width:1.5;stroke-linecap:butt;stroke-linejoin:round;stroke:rgb(12.156863%,46.666667%,70.588235%);stroke-opacity:1;stroke-miterlimit:4;" d="M 42.61875 126.128125 L 45.671875 126.521875 L 48.721875 126.909375 L 51.775 127.290625 L 54.828125 127.665625 L 57.878125 128.03125 L 60.928125 128.375 L 63.98125 128.7125 L 67.034375 129.04375 L 70.084375 129.36875 L 73.1375 129.684375 L 76.1875 129.996875 L 79.240625 130.3 L 82.290625 130.59375 L 85.34375 130.884375 L 88.39375 131.165625 L 91.44375 131.440625 L 93.06875 131.584375 L 94.496875 131.70625 L 97.546875 131.95625 L 100.6 132.2 L 103.653125 132.440625 L 106.703125 132.671875 L 109.753125 132.896875 L 112.80625 133.1125 L 115.859375 133.325 L 118.909375 133.528125 L 121.9625 133.728125 L 125.0125 133.91875 L 128.065625 134.103125 L 131.115625 134.28125 L 134.16875 134.45 L 137.21875 134.615625 L 140.271875 134.771875 L 143.321875 134.925 L 146.375 135.06875 L 147.9375 135.1375 L 149.425 135.203125 L 152.478125 135.328125 L 155.528125 135.45 L 158.58125 135.5625 L 161.63125 135.66875 L 164.684375 135.76875 L 167.734375 135.8625 L 170.7875 135.95 L 173.8375 136.03125 L 176.8875 136.103125 L 179.940625 136.171875 L 182.99375 136.234375 L 186.04375 136.2875 L 189.096875 136.3375 L 192.146875 136.378125 L 195.2 136.415625 L 198.25 136.44375 L 201.303125 136.465625 L 204.353125 136.48125 L 207.40625 136.490625 L 210.45625 136.496875 L 213.509375 136.490625 L 216.559375 136.48125 L 219.6125 136.465625 L 222.6625 136.44375 L 225.715625 136.415625 L 228.765625 136.378125 L 231.81875 136.3375 L 234.86875 136.2875 L 237.921875 136.234375 " transform="matrix(1.25,0,0,1.25,0,0.000000000000014211)"/>
</g>
<g clip-path="url(#clip6)" clip-rule="nonzero">
<path style="fill:none;stroke-width:1.5;stroke-linecap:butt;stroke-linejoin:round;stroke:rgb(12.156863%,46.666667%,70.588235%);stroke-opacity:1;stroke-miterlimit:4;" d="M 42.61875 136.415625 L 45.671875 136.765625 L 48.721875 137.1125 L 51.775 137.453125 L 54.828125 137.784375 L 57.878125 138.109375 L 60.928125 138.43125 L 63.478125 138.69375 L 63.98125 138.740625 L 67.034375 139.0375 L 70.084375 139.328125 L 73.1375 139.6125 L 76.1875 139.890625 L 79.240625 140.159375 L 82.290625 140.425 L 85.34375 140.684375 L 88.39375 140.9375 L 91.44375 141.184375 L 94.496875 141.421875 L 97.546875 141.65625 L 100.6 141.884375 L 103.653125 142.10625 L 105.640625 142.246875 L 106.703125 142.31875 L 109.753125 142.51875 L 112.80625 142.715625 L 115.859375 142.90625 L 118.909375 143.090625 L 121.9625 143.265625 L 125.0125 143.4375 L 128.065625 143.603125 L 131.115625 143.765625 L 134.16875 143.91875 L 137.21875 144.065625 L 140.271875 144.20625 L 143.321875 144.34375 L 146.375 144.471875 L 149.425 144.59375 L 152.478125 144.7125 L 155.528125 144.825 L 158.58125 144.928125 L 161.63125 145.028125 L 164.684375 145.121875 L 167.734375 145.209375 L 170.7875 145.290625 L 173.8375 145.365625 L 176.8875 145.434375 L 179.940625 145.5 L 182.99375 145.55625 L 186.04375 145.60625 L 189.096875 145.653125 L 192.146875 145.690625 L 195.2 145.725 L 198.25 145.753125 L 201.303125 145.771875 L 204.353125 145.7875 L 207.40625 145.796875 L 210.45625 145.8 " transform="matrix(1.25,0,0,1.25,0,0.000000000000014211)"/>
</g>
<g clip-path="url(#clip7)" clip-rule="nonzero">
<path style="fill:none;stroke-width:1.5;stroke-linecap:butt;stroke-linejoin:round;stroke:rgb(12.156863%,46.666667%,70.588235%);stroke-opacity:1;stroke-miterlimit:4;" d="M 210.45625 145.8 L 213.509375 145.796875 L 216.559375 145.7875 L 219.6125 145.771875 L 222.6625 145.753125 L 225.715625 145.725 L 228.765625 145.690625 L 231.81875 145.653125 L 234.86875 145.60625 L 237.921875 145.55625 " transform="matrix(1.25,0,0,1.25,0,0.000000000000014211)"/>
</g>
<g clip-path="url(#clip8)" clip-rule="nonzero">
<path style="fill:none;stroke-width:1.5;stroke-linecap:butt;stroke-linejoin:round;stroke:rgb(12.156863%,46.666667%,70.588235%);stroke-opacity:1;stroke-miterlimit:4;" d="M 42.61875 145.725 L 43.31875 145.8 " transform="matrix(1.25,0,0,1.25,0,0.000000000000014211)"/>
</g>
<path style="fill:none;stroke-width:0.8;stroke-linecap:square;stroke-linejoin:miter;stroke:rgb(0%,0%,0%);stroke-opacity:1;stroke-miterlimit:4;" d="M 42.61875 145.8 L 42.61875 7.2 " transform="matrix(1.25,0,0,1.25,0,0.000000000000014211)"/>
<path style="fill:none;stroke-width:0.8;stroke-linecap:square;stroke-linejoin:miter;stroke:rgb(0%,0%,0%);stroke-opacity:1;stroke-miterlimit:4;" d="M 237.921875 145.8 L 237.921875 7.2 " transform="matrix(1.25,0,0,1.25,0,0.000000000000014211)"/>
<path style="fill:none;stroke-width:0.8;stroke-linecap:square;stroke-linejoin:miter;stroke:rgb(0%,0%,0%);stroke-opacity:1;stroke-miterlimit:4;" d="M 42.61875 145.8 L 237.921875 145.8 " transform="matrix(1.25,0,0,1.25,0,0.000000000000014211)"/>
<path style="fill:none;stroke-width:0.8;stroke-linecap:square;stroke-linejoin:miter;stroke:rgb(0%,0%,0%);stroke-opacity:1;stroke-miterlimit:4;" d="M 42.61875 7.2 L 237.921875 7.2 " transform="matrix(1.25,0,0,1.25,0,0.000000000000014211)"/>
</g>
</svg>
